<?xml version="1.0" encoding="utf-8"?>
<!-- Generator: Adobe Illustrator 23.0.3, SVG Export Plug-In . SVG Version: 6.00 Build 0)  -->
<svg version="1.1" id="master-artboard" xmlns="http://www.w3.org/2000/svg" xmlns:xlink="http://www.w3.org/1999/xlink" x="0px"
	 y="0px" viewBox="0 0 50 50" style="enable-background:new 0 0 50 50;" xml:space="preserve">
<style type="text/css">
	.st0{fill:#FFFFFF;fill-opacity:0;}
	.st1{fill:#18BC9C;}
</style>
<rect id="ee-background" class="st0" width="50" height="50"/>
<path class="st1" d="M9.4,11c-0.4,1.7-1,3.4-1.6,5.2c-0.6,1.8-1.3,3.5-2,5.1c0,0.1-0.1,0.2-0.2,0.4C5.4,21.9,5.4,22,5.3,22
	c-0.1,0-0.1-0.1-0.1-0.4c0-0.3,0-0.4,0.1-0.5c0-0.4,0.1-0.8,0.2-1.4c0.1-0.6,0.2-1.1,0.3-1.7c0.1-0.6,0.2-1.2,0.4-1.7
	c0.1-0.6,0.3-1,0.4-1.4c0.1-0.3,0.3-1,0.5-2.1c0.2-1.1,0.5-2.4,0.7-3.7C8,7.6,8.2,6.3,8.3,5.1c0.1-1.3,0.1-2.2,0-2.8
	C8.3,2,8.3,1.8,8.3,1.8c0.1,0,0.1,0,0.2,0.1c0,0.1,0.1,0.1,0.2,0.2C9,2.7,9.2,3.3,9.4,4.1c0.2,0.7,0.3,1.5,0.3,2.3
	c0.1,0.8,0,1.6,0,2.4C9.7,9.7,9.5,10.4,9.4,11 M7.3,1c0.4,1.5,0.6,3,0.4,4.6c-0.2,1.6-0.5,3.2-0.9,4.9c-0.4,1.7-1,3.4-1.5,5.1
	c-0.6,1.7-1,3.5-1.4,5.2c-0.4,1.6-0.6,3.2-0.8,4.8c-0.1,1.6,0,3.2,0.3,4.8c0.1-0.2,0.2-0.3,0.3-0.3C3.8,30,3.9,30,4,29.9
	c0-0.4,0-0.8,0-1.1c0-0.4,0-0.7,0-1.1c0-0.3,0.1-0.6,0.1-0.7c0.1-0.2,0.2-0.3,0.3-0.3c0,0,0.1,0.1,0.1,0.2c0,0.2,0.1,0.3,0.1,0.5
	c0,0.2,0.1,0.4,0.1,0.6s0,0.3,0,0.4c0,0.2,0,0.4,0,0.6s0,0.3,0.1,0.4c0.1,0,0.2-0.1,0.3-0.1c0.1,0,0.3-0.1,0.4-0.1
	c0.2-2.2,0.5-4.5,1.1-6.7c0.6-2.2,1.2-4.5,1.9-6.7c0.4-1.5,0.8-2.9,1.2-4.5c0.4-1.5,0.6-3.2,0.7-4.9c0-0.2,0-0.2,0.1-0.2
	c0,0,0.1,0,0.1,0.1c0,0.1,0,0.1,0.1,0.2c0.3,0.8,0.5,1.9,0.4,3.3c-0.1,1.3-0.3,2.7-0.6,4.2c-0.3,1.4-0.6,2.8-1,4.2
	c-0.4,1.3-0.6,2.4-0.8,3.2c-0.3,1.3-0.7,2.6-1.2,4c-0.4,1.3-0.8,2.6-1.3,3.8c0.6-0.1,1.2-0.2,1.9-0.2c0.7,0,1.3,0,1.8,0
	c0.6,0,1,0,1.5,0c0.4,0,0.7,0,0.8,0c0.9,0,1.8,0.1,2.8,0.3c1,0.2,1.8,0.3,2.5,0.5c0.2,0.1,0.4,0.1,0.4,0.2c0,0.1,0,0.1-0.1,0.1
	c-0.1,0-0.2,0.1-0.2,0.1c-1.4,0.4-2.7,0.6-4.1,0.5c-1.4-0.1-2.8-0.2-4.3-0.3c-0.6-0.1-1.1-0.1-1.7-0.1c-0.6,0-1.2,0-1.8,0
	c-0.6,0-1.2,0.2-1.7,0.3c-0.5,0.2-1,0.4-1.5,0.8c-0.7-1.8-1-3.6-0.9-5.6c0.1-2,0.4-3.9,0.8-5.9C3,18.2,3.5,16.5,4,14.8
	c0.5-1.7,1-3.3,1.5-4.9c0.4-1.6,0.8-3.1,1.1-4.6C6.9,3.8,7,2.3,7,1C7,0.8,7.1,0.7,7.1,0.7c0,0,0.1,0,0.1,0.1C7.2,0.9,7.3,1,7.3,1
	 M20.3,28.8c0.1-0.1,0.1-0.1,0.2,0c0,0.1,0,0.2,0,0.4c-0.2,0.5-0.4,0.9-0.5,1.2c-0.2,0.3-0.5,0.7-1,1c-0.2,0.2-0.5,0.3-0.8,0.4
	c-0.3,0.1-0.6,0.2-0.9,0.3c-0.3,0.1-0.5,0.1-0.7,0.1c-0.2,0-0.3-0.1-0.3-0.2c0-0.1,0.1-0.2,0.4-0.4c0.3-0.2,0.5-0.3,0.6-0.3
	c0.3-0.2,0.5-0.3,0.7-0.4c0.3-0.1,0.5-0.3,0.7-0.5c0.3-0.3,0.5-0.5,0.8-0.7C19.7,29.4,20,29.1,20.3,28.8 M20.5,30.1
	c0.1-0.2,0.1-0.2,0.1,0c0,0.1,0,0.2,0,0.3c-0.5,1.1-1,1.9-1.6,2.4c-0.6,0.6-1.3,1-1.9,1.2c-0.7,0.3-1.4,0.4-2.2,0.5
	c-0.8,0-1.5,0.1-2.3,0.1c-2.1,0-4.1-0.1-6.1-0.3c-2-0.1-3.7-0.1-5.3,0.3c-0.1,0-0.1,0-0.2,0c-0.1,0,0,0,0.1-0.1
	c0.7-0.7,1.6-1.2,2.5-1.3s1.9-0.2,3-0.1c1,0.1,2.1,0.3,3.2,0.5c1.1,0.2,2.1,0.3,3.2,0.4c1.3,0,2.6-0.2,4-0.8
	C18.3,32.5,19.5,31.5,20.5,30.1 M13.4,32.3c0,0.1-0.1,0.1-0.2,0.1c-0.1,0-0.2,0-0.3,0c-0.5,0.1-1.1,0.2-1.9,0.2c-0.8,0-1.5,0-2.2,0
	c-0.2,0-0.5,0-1.1-0.1c-0.6,0-1.2-0.1-1.9,0c-0.7,0-1.5,0.1-2.2,0.3c-0.7,0.2-1.4,0.4-1.9,0.8c-0.1,0.1-0.2,0.1-0.3,0
	c0,0,0-0.1,0.1-0.2s0.1-0.2,0.1-0.2c0.4-0.7,1.1-1.2,2-1.6c0.9-0.4,1.8-0.6,2.8-0.7c1-0.1,2.1,0,3.2,0.2c1.1,0.2,2.2,0.5,3.3,0.8
	c0,0,0.1,0,0.3,0.1C13.3,32.1,13.4,32.2,13.4,32.3z"/>
<path class="st1" d="M46.7,17.1c0,0.6-0.1,1.2-0.4,1.8c-0.3,0.6-0.6,1.2-1,1.8c-0.4,0.6-0.8,1.1-1.3,1.6c-0.5,0.5-0.9,0.9-1.3,1.2
	c-1.2,0.9-2.5,1.7-3.9,2.5c-1.4,0.8-2.8,1.4-4.1,2c-0.1,0-0.2,0.1-0.4,0.2c-0.2,0.1-0.4,0.1-0.4,0c-0.1-0.1,0-0.2,0.1-0.4
	s0.3-0.3,0.4-0.3c0.2-0.2,0.5-0.5,0.9-0.8c0.4-0.3,0.7-0.6,1.1-0.9c0.4-0.3,0.8-0.6,1.2-0.9c0.4-0.3,0.7-0.5,1.1-0.7
	c0.2-0.1,0.7-0.5,1.5-1.1c0.8-0.6,1.6-1.2,2.4-2c0.9-0.8,1.7-1.5,2.4-2.3c0.8-0.8,1.2-1.4,1.4-1.9c0.1-0.2,0.2-0.3,0.3-0.2
	c0,0,0,0.1,0,0.2C46.7,17,46.7,17.1,46.7,17.1 M26.5,34.4c1.2,0.2,2.3,0.4,3.4,0.7c1.1,0.3,2.1,0.8,3,1.7c1.1,0.9,2.2,2,3.3,3.1
	c1.1,1.1,2.2,2.2,3.2,3.3c0.1,0.1,0.2,0.2,0.3,0.4c0.1,0.2,0.2,0.3,0.1,0.4c0,0.1-0.1,0.1-0.3,0c-0.2-0.1-0.3-0.1-0.4-0.2
	c-0.3-0.2-0.6-0.4-1-0.6c-0.4-0.3-0.8-0.6-1.2-0.9c-0.4-0.3-0.8-0.6-1.2-0.9c-0.4-0.3-0.7-0.6-0.9-0.8c-0.2-0.2-0.6-0.5-1.2-1.1
	c-0.7-0.5-1.4-1.1-2.3-1.7s-1.8-1.2-2.8-1.7c-1-0.5-1.8-0.9-2.6-1.1c-0.3-0.1-0.4-0.2-0.4-0.5c0-0.3,0-0.5,0.1-0.7
	c0.1-0.4,0.1-0.8,0.3-1.4c0.1-0.6,0.2-1.1,0.3-1.7c0.1-0.6,0.2-1.2,0.4-1.7c0.1-0.6,0.2-1,0.4-1.4c0.1-0.3,0.3-1,0.5-2.1
	c0.3-1.1,0.5-2.4,0.8-3.7c0.2-1.4,0.4-2.7,0.6-4c0.1-1.3,0.1-2.2,0-2.8c-0.1-0.3-0.1-0.4,0-0.4c0.1,0,0.1,0,0.1,0.1
	c0,0.1,0.1,0.1,0.1,0.2c0.3,0.5,0.6,1.2,0.8,1.9c0.2,0.7,0.3,1.5,0.3,2.3c0,0.8,0,1.6,0,2.4c-0.1,0.8-0.2,1.5-0.4,2.1
	c-0.3,1.3-0.7,2.6-1.2,3.9c-0.4,1.3-0.9,2.6-1.4,3.9c0.3-0.5,0.7-1,1-1.4c0.3-0.4,0.6-0.9,0.8-1.3l0-0.2c0.3-1.5,0.7-3,1.1-4.5
	c0.4-1.5,0.7-3.2,0.8-4.9c0.1-0.2,0.1-0.2,0.1-0.2c0,0,0.1,0,0.1,0.1c0,0.1,0.1,0.1,0.1,0.2c0.3,0.8,0.5,1.9,0.4,3.3
	c-0.1,1.3-0.3,2.8-0.6,4.2c0.4-0.3,0.7-0.6,1.1-0.9c0.4-0.3,0.7-0.6,1.2-0.8c1.2-0.8,2.4-1.6,3.6-2.3c1.2-0.7,2.4-1.5,3.6-2.3
	c1.2-0.8,2.2-1.6,3.2-2.4c1-0.8,1.8-1.7,2.6-2.7c0.1-0.1,0.2-0.1,0.2,0c0,0,0,0,0,0.1c0,0.1,0,0.1,0,0.2c-0.5,1.3-1.2,2.4-2.1,3.4
	c-0.9,1-2,1.9-3.2,2.7c-1.2,0.8-2.4,1.6-3.7,2.4c-1.3,0.7-2.5,1.5-3.7,2.4c-1.5,1-2.8,2.2-4.1,3.5S27.2,32.7,26.5,34.4 M28.7,34.1
	c-0.2,0-0.4,0-0.6,0c-0.3,0-0.5,0-0.7,0c0.1-0.2,0.3-0.5,0.4-0.7c0.2-0.2,0.3-0.5,0.5-0.7c0.2-0.3,0.4-0.5,0.7-0.8
	c0.3-0.3,0.5-0.5,0.8-0.8c0.3-0.2,0.5-0.4,0.7-0.5c0.2-0.1,0.3-0.1,0.4,0c0,0,0,0.1-0.1,0.2c-0.1,0.1-0.2,0.3-0.3,0.4
	c-0.1,0.2-0.2,0.3-0.3,0.5c-0.1,0.1-0.2,0.2-0.2,0.3c-0.3,0.4-0.6,0.8-0.7,1.1C29,33.4,28.9,33.7,28.7,34.1 M46.5,46.7
	c-0.1,0.1-0.1,0.1-0.3,0c-0.1-0.1-0.2-0.1-0.3-0.2c-0.9-0.4-1.7-0.9-2.5-1.5c-0.8-0.6-1.6-1.2-2.3-1.9c-0.7-0.7-1.5-1.4-2.2-2.1
	c-0.7-0.7-1.5-1.4-2.2-2.2c-0.5-0.5-1.1-1-1.7-1.5c-0.6-0.5-1.2-1-1.8-1.5c-0.6-0.4-1.3-0.8-1.9-1.2c-0.7-0.3-1.3-0.5-2-0.6
	c0.4-0.6,1.1-1.2,1.9-2c0.9-0.7,1.9-1.5,2.9-2.2c1.1-0.7,2.1-1.4,3.1-2c1-0.7,1.9-1.2,2.5-1.6c1.1-0.7,2.2-1.4,3.3-2.2
	c1.1-0.8,2.1-1.7,3-2.8c0.1-0.1,0.2-0.2,0.3-0.1c0,0.1,0,0.1-0.1,0.2c0,0.1,0,0.1,0,0.2c-0.2,0.8-0.6,1.6-1.4,2.4
	c-0.8,0.9-1.6,1.7-2.6,2.4c-1,0.8-1.9,1.5-2.9,2.2c-1,0.7-1.8,1.2-2.4,1.6c-0.6,0.4-1.1,0.7-1.7,1.1c-0.6,0.3-1.2,0.7-1.8,1
	c-0.6,0.3-1.2,0.6-1.8,0.9c-0.6,0.3-1.1,0.5-1.6,0.7c0.8,0,1.7,0.2,2.8,0.7c1,0.5,2.1,1.1,3.1,1.8c1,0.7,2,1.4,2.8,2.2
	c0.9,0.8,1.5,1.4,2,1.9c1,1.1,2,2.1,3,3.2c1,1,1.8,1.9,2.6,2.6C46.5,46.4,46.6,46.6,46.5,46.7 M27.4,13.7c0.4,1.5,0.6,3,0.4,4.6
	c-0.2,1.6-0.5,3.2-0.9,4.9c-0.4,1.7-1,3.4-1.5,5.1c-0.6,1.7-1,3.5-1.4,5.2c-0.3,1.1-0.4,2.2-0.6,3.4c-0.1,1.2-0.2,2.4-0.1,3.6
	c0,1.2,0.2,2.3,0.4,3.5c0.2,1.1,0.6,2.2,1.1,3.1c0.1,0.3,0.2,0.4,0.1,0.4c-0.1,0-0.1,0-0.2-0.1c-0.1-0.1-0.1-0.1-0.1-0.1
	c-0.9-1-1.5-2.1-1.9-3.3c-0.4-1.2-0.6-2.4-0.7-3.7c-0.1-1.3-0.1-2.6,0.1-3.9c0.2-1.3,0.4-2.6,0.7-3.8c0.4-1.7,0.9-3.4,1.4-5.1
	c0.5-1.7,1-3.3,1.5-4.9c0.4-1.6,0.8-3.1,1.1-4.6c0.3-1.5,0.4-2.9,0.4-4.3c0-0.2,0-0.3,0.1-0.3c0,0,0.1,0,0.1,0.1
	C27.4,13.6,27.4,13.6,27.4,13.7 M49.4,48.2c0,0.1,0,0.1-0.1,0.1c-0.1,0-0.1,0.1-0.2,0.1C48,48.8,46.8,49,45.7,49
	c-1.1-0.1-2.2-0.2-3.2-0.6c-1-0.3-2-0.7-3-1.3c-1-0.5-1.8-1.1-2.7-1.6c-0.8-0.5-1.6-1.1-2.4-1.8c-0.8-0.7-1.5-1.4-2.3-2.1
	c-0.7-0.7-1.5-1.4-2.2-2.1c-0.7-0.7-1.4-1.3-2.2-1.8l-1.4,4.8c-0.1,0.2-0.1,0.3-0.2,0.4c0,0.1-0.1,0.2-0.2,0.1
	c-0.1,0-0.1-0.1-0.1-0.3c0-0.1,0-0.3,0-0.4c0-0.9,0.1-1.8,0.2-2.7c0.1-0.9,0.3-1.9,0.5-2.8c-0.2-0.1-0.4-0.3-0.7-0.4
	c-0.3-0.2-0.5-0.3-0.8-0.5c-0.1,0-0.1-0.1-0.2-0.2c-0.1-0.1-0.1-0.1-0.1-0.2c0,0,0.1,0,0.2,0c1.1,0.1,2.2,0.5,3.3,1.1
	c1.1,0.6,2.1,1.4,3.2,2.3c1.1,0.9,2.1,1.8,3.2,2.9c1.1,1,2.2,2,3.4,2.9c1.5,1.2,3.2,2.1,5.1,2.7c1.9,0.7,3.9,0.9,5.9,0.6
	C49.3,48,49.4,48.1,49.4,48.2 M26.3,47.4c-0.1,0-0.2,0-0.3-0.1c-0.1,0-0.1-0.1-0.1-0.1c-0.4-0.5-0.7-0.9-1-1.3
	c-0.2-0.4-0.4-1-0.6-1.9c-0.1-0.3-0.1-0.8-0.1-1.3c0-0.5,0-1,0-1.5c0-0.5,0.1-0.9,0.2-1.3c0.1-0.3,0.2-0.5,0.3-0.5
	c0,0,0.1,0.1,0.1,0.2c0,0.2,0.1,0.3,0.1,0.5c0,0.2,0.1,0.4,0.1,0.6c0,0.2,0,0.3,0,0.4c0.1,0.7,0.1,1.2,0.2,1.7
	c0,0.4,0.1,0.8,0.2,1.2c0.2,1,0.5,2,0.9,3.1c0,0.1,0.1,0.1,0.1,0.2C26.4,47.4,26.4,47.4,26.3,47.4 M43.1,46.5c0.2,0,0.5,0.1,0.8,0.2
	c0.3,0.1,0.6,0.2,0.8,0.2c0.8,0.2,1.5,0.4,2,0.5c0.5,0.1,1.2,0.2,1.9,0.2c0.1,0,0.1,0,0.3,0c0.1,0,0.2,0,0.2,0.1
	c0,0.1-0.2,0.2-0.5,0.2c-0.4,0.1-0.7,0.1-1,0.1s-0.6,0-1.1,0c-0.3,0-0.5-0.1-0.9-0.1c-0.3-0.1-0.7-0.1-1-0.3c-0.3-0.1-0.7-0.2-1-0.3
	c-0.3-0.1-0.5-0.2-0.6-0.4c-0.1-0.1-0.2-0.2-0.1-0.3C42.9,46.5,43,46.5,43.1,46.5z"/>
</svg>
