<?xml version="1.0" encoding="utf-8"?>
<svg id="master-artboard" viewBox="0 0 127.19554901123047 63.25837326049805" version="1.1" xmlns="http://www.w3.org/2000/svg" x="0px" y="0px" style="enable-background:new 0 0 336 235.2;" width="127.19554901123047px" height="63.25837326049805px"><rect id="ee-background" x="0" y="0" width="127.19554901123047" height="63.25837326049805" style="fill: white; fill-opacity: 0; pointer-events: none;"/>












<g transform="matrix(4.1764726638793945, 0.10338914394378662, -0.10338914394378662, 4.1764726638793945, -1088.5281219482422, -820.8090209960938)">
	<g class="st7" style="opacity: 0.15;" transform="matrix(0.4720143477103907, 0, 0, 0.4720143477103907, 148.39036113085734, 104.4628346216111)">
		<path d="M 280.100006 194.399994 L 285.600006 193.199997 L 286.100006 195.5 L 280.299988 196.800003" class="st8" style="fill: rgb(18, 16, 11);"/>
		<path class="st8" d="M261.6,211.3c0,0-1.9,2.1-1.4,3c0.5,0.9,4.5,0.7,4.4-1.8C263.8,211.8,261.6,211.3,261.6,211.3z" style="fill: rgb(18, 16, 11);"/>
		<path class="st8" d="M309.3,200.3c0,0,2.6,1.1,2.6,2.1c0,1-3.8,2.6-4.7,0.3C307.6,201.7,309.3,200.3,309.3,200.3z" style="fill: rgb(18, 16, 11);"/>
		<g>
			<path class="st8" d="M311.3,193.8c0.7,5.5-3.5,10.8-9.5,12.4c-6.9,1.9-13.5-3-15.5-8.2c-2-5.2-3.6-10.1,9.3-13.2&#10;&#9;&#9;&#9;&#9;C309.5,181.4,310.6,188.4,311.3,193.8z" style="fill: rgb(18, 16, 11);"/>
			<path class="st8" d="M256.9,206.3c1.7,5.2,7.8,8.2,13.9,7c7-1.3,10.9-8.6,10.4-14.1c-0.5-5.6-1.1-10.6-14.2-7.8&#10;&#9;&#9;&#9;&#9;C253.1,194.4,255.2,201.1,256.9,206.3z" style="fill: rgb(18, 16, 11);"/>
			<path class="st8" d="M298,184.3c0,0,6.8-1.5,13-0.8c0.5,1.5,0.6,2.9,0.6,2.9s-1.2,0.3-1.2,0.6c0,0.2,1.2,6.6,1,8.1&#10;&#9;&#9;&#9;&#9;C309.5,187.6,306.2,184.2,298,184.3z" style="fill: rgb(18, 16, 11);"/>
			<path class="st8" d="M264.7,192c0,0-6.8,1.6-12.1,5c0.2,1.6,0.7,2.8,0.7,2.8s1.2-0.2,1.3,0c0.1,0.2,1.8,6.4,2.6,7.7&#10;&#9;&#9;&#9;&#9;C255.8,200,257.3,195.4,264.7,192z" style="fill: rgb(18, 16, 11);"/>
			<path class="st8" d="M266,191.6l30-6.9c0,0-10.5,4.8-9.7,8.3l0.2,2.5l-6.7,1.6c0,0-0.3-5.2-5.2-5.3&#10;&#9;&#9;&#9;&#9;C269.7,191.6,266,191.6,266,191.6z" style="fill: rgb(18, 16, 11);"/>
			<path class="st8" d="M281.1,198.9c0,0,0-2.2,2.1-2.7c2.1-0.5,2.9,1,3,1.5c0.3-0.7,0.7-3.3-0.2-3.2c-0.9,0.1-3.6,0.2-4.3,0.7&#10;&#9;&#9;&#9;&#9;c-0.6,0.5-2,0.6-2,1.3C279.9,197.3,281.1,198.9,281.1,198.9z" style="fill: rgb(18, 16, 11);"/>
		</g>
		<path class="st8" d="M309.3,194.1c0.6,4.6-2.9,9-7.9,10.4c-5.8,1.6-11.4-2.5-13-6.9c-1.7-4.4-3-8.4,7.8-11.1&#10;&#9;&#9;&#9;C307.8,183.7,308.7,189.5,309.3,194.1z" style="fill: rgb(18, 16, 11);"/>
		<path class="st8" d="M258.8,205.7c1.4,4.4,6.6,6.9,11.7,5.9c5.9-1.1,9.1-7.3,8.7-11.9c-0.4-4.7-1-8.9-11.9-6.5&#10;&#9;&#9;&#9;C255.7,195.7,257.4,201.3,258.8,205.7z" style="fill: rgb(18, 16, 11);"/>
	</g>
	<path d="M 277.700012 192 L 283.200012 190.800003 L 283.700012 193.100006 L 277.899994 194.399994" class="st24" style="fill: rgb(166, 45, 23);" transform="matrix(0.4720143477103907, 0, 0, 0.4720143477103907, 148.39036113085734, 104.4628346216111)"/>
	<path class="st25" d="M259.2,208.9c0,0-1.9,2.1-1.4,3c0.5,0.9,4.5,0.7,4.4-1.8C261.4,209.4,259.2,208.9,259.2,208.9z" style="fill: rgb(24, 188, 155);" transform="matrix(0.4720143477103907, 0, 0, 0.4720143477103907, 148.39036113085734, 104.4628346216111)"/>
	<path class="st25" d="M306.9,197.9c0,0,2.6,1.1,2.6,2.1c0,1-3.8,2.6-4.7,0.3C305.2,199.3,306.9,197.9,306.9,197.9z" style="fill: rgb(24, 188, 155);" transform="matrix(0.4720143477103907, 0, 0, 0.4720143477103907, 148.39036113085734, 104.4628346216111)"/>
	<g transform="matrix(0.4720143477103907, 0, 0, 0.4720143477103907, 148.39036113085734, 104.4628346216111)">
		<path class="st4" d="M308.9,191.4c0.7,5.5-3.5,10.8-9.5,12.4c-6.9,1.9-13.5-3-15.5-8.2c-2-5.2-3.6-10.1,9.3-13.2&#10;&#9;&#9;&#9;C307.1,179,308.2,186,308.9,191.4z" style="fill: rgb(24, 188, 156);"/>
		<path class="st4" d="M254.5,203.9c1.7,5.2,7.8,8.2,13.9,7c7-1.3,10.9-8.6,10.4-14.1c-0.5-5.6-1.1-10.6-14.2-7.8&#10;&#9;&#9;&#9;C250.7,192,252.8,198.7,254.5,203.9z" style="fill: rgb(24, 188, 156);"/>
		<path class="st4" d="M295.6,181.9c0,0,6.8-1.5,13-0.8c0.5,1.5,0.6,2.9,0.6,2.9s-1.2,0.3-1.2,0.6c0,0.2,1.2,6.6,1,8.1&#10;&#9;&#9;&#9;C307.1,185.2,303.8,181.8,295.6,181.9z" style="fill: rgb(24, 188, 156);"/>
		<path class="st4" d="M262.3,189.6c0,0-6.8,1.6-12.1,5c0.2,1.6,0.7,2.8,0.7,2.8s1.2-0.3,1.3,0c0.1,0.2,1.8,6.4,2.6,7.7&#10;&#9;&#9;&#9;C253.4,197.6,254.9,193,262.3,189.6z" style="fill: rgb(24, 188, 156);"/>
		<path class="st4" d="M263.6,189.2l30-6.9c0,0-10.5,4.8-9.7,8.3l0.2,2.5l-6.8,1.6c0,0-0.3-5.2-5.2-5.3&#10;&#9;&#9;&#9;C267.3,189.2,263.6,189.2,263.6,189.2z" style="fill: rgb(24, 188, 156);"/>
		<path class="st4" d="M278.7,196.5c0,0,0-2.2,2.1-2.7c2.1-0.5,2.9,1,3,1.5c0.3-0.7,0.7-3.3-0.2-3.2c-0.9,0.1-3.6,0.2-4.3,0.7&#10;&#9;&#9;&#9;c-0.6,0.5-2,0.6-2,1.3C277.5,194.9,278.7,196.5,278.7,196.5z" style="fill: rgb(24, 188, 156);"/>
	</g>
	<path class="st2" d="M306.9,191.7c0.6,4.6-2.9,9-7.9,10.4c-5.8,1.6-11.4-2.5-13-6.9c-1.7-4.4-3-8.4,7.8-11.1&#10;&#9;&#9;C305.4,181.3,306.3,187.1,306.9,191.7z" style="fill: rgb(242, 242, 243);" transform="matrix(0.4720143477103907, 0, 0, 0.4720143477103907, 148.39036113085734, 104.4628346216111)"/>
	<path class="st2" d="M256.4,203.3c1.4,4.4,6.6,6.9,11.7,5.9c5.9-1.1,9.1-7.3,8.7-11.9c-0.4-4.7-1-8.9-11.9-6.5&#10;&#9;&#9;C253.3,193.3,255,198.9,256.4,203.3z" style="fill: rgb(242, 242, 243); fill-opacity: 1;" transform="matrix(0.4720143477103907, 0, 0, 0.4720143477103907, 148.39036113085734, 104.4628346216111)"/>
</g>

</svg>