<svg version="1" xmlns="http://www.w3.org/2000/svg" width="933.333" height="933.333" viewBox="0 0 700.000000 700.000000"><path d="M0 350v350h700V0H0v350zm686 0v336H14V14h672v336z"/><path d="M103.6 19.2c-.3 1.3-.7 8.4-1.1 15.8-.7 17-2 28.2-5.1 44-4.7 23.9-15.3 64.7-24.8 95.5C59 218.9 42.1 276.4 40.5 284.1c-2.5 11.5-6.3 35.9-8 49.9-3.5 30.4-3 54.4 1.6 75.5 2 9.5 7.7 27.5 8.6 27.5.3 0 2.7-1.3 5.2-2.8 6.7-4.2 16.5-7.8 25.8-9.7 11.1-2.2 49.3-1.6 88.8 1.4 44.1 3.5 64 2.4 86.3-4.5 2.8-.9 5.2-2.1 5.2-2.6 0-1.9-12.2-4.9-40.9-10-17.3-3.1-18.2-3.1-57.1-3.6-26.5-.2-43.1 0-50.3.8-6 .7-11 1-11.3.8-.2-.3 1.2-4.7 3.1-9.9 4.4-11.8 22.9-69.3 26.2-81.4 1.3-5 4.4-17.3 6.9-27.5 2.4-10.2 6.4-26.2 9-35.5 13.5-50.1 22.5-104.2 21-126.6-.6-10.5-1.7-17.1-4.1-25.3-1.6-5.3-3.9-9.5-4.8-8.6-.3.3-1 6.8-1.6 14.5-1.5 17.7-3.5 31.9-6.7 46.3-3.5 15.6-16.3 63.6-23.4 87.2-6.7 22.6-20.9 74.4-24 87.5-4.6 19.7-9.3 49.1-11.6 73.1l-.6 7-4.5 1.2c-2.4.7-4.9 1-5.4.7-.5-.4-.9-4.8-1-9.8-.1-10.2-2.7-24.8-4.6-25.4-.6-.3-2 .8-3 2.3-1.5 2.4-1.9 5.5-2.2 22-.3 18.7-.4 19.2-2.5 19.8-1.2.3-3.2 1.5-4.4 2.7-1.3 1.1-2.5 1.9-2.7 1.7-1.3-1.2-3.8-26.3-4.2-42.3-.5-17.6-.3-20.7 2.6-41 1.8-12.1 4.1-26.5 5.2-32 4-19.7 14.8-62.3 20.2-79.5 19.7-62.7 28.6-95 32.1-117 5.4-34.5 4.9-62.1-1.5-86.3-2.1-7.8-3.5-9.5-4.3-5.5z"/><path d="M120.4 38.1c2.2 13.7 1.4 34.6-2.4 64.4-4.4 35.1-14.8 89.3-21 110-6.6 22.4-8.8 31.4-12.5 52.3-3.2 18.2-4.1 23.8-6.2 37.5-1.2 8 2.5 8.4 6.4.5 3.3-6.7 15-34.9 20.3-48.8 7.2-19.1 24.4-71.8 28.4-87 7.2-27.7 8.1-34.1 8-59-.1-16-.6-25.2-1.8-31.8-2.7-15.3-9.8-33.4-15.4-39.5-3.6-3.8-4.6-3.4-3.8 1.4zM380.7 191.7c-.4.3-.7 4.9-.7 10.2 0 20.3-2.7 40.5-9.2 69.1-6.5 29-10.4 43.7-18.9 71.2-22.8 74.3-33 112.5-38.4 144.1-4.8 28.2-5.9 41.2-5.2 60.7 1.7 46.7 11.9 79.3 33 105 8.2 10 10 9.5 4.6-1.2-7.8-15.5-11.6-27.9-15.4-50.4-9.8-58-2.5-117.3 25.4-206.5 19-61 23.8-80.2 30.2-120.9 4-25.9 3.9-44.7-.6-67.2-1.7-8.2-3.3-14.8-3.6-14.8-.3 0-.9.3-1.2.7z"/><path d="M403.5 212.7c3.3 25.4-3.6 75.7-20.5 150.5-2.1 9.7-4.9 20.3-6 23.5-3.6 10.1-8 28.2-11.5 47.3-1.9 10.2-4.6 23.6-6 29.9-1.4 6.3-2.5 13.3-2.5 15.7 0 5.2 1.5 6.5 11.5 9.6 10.3 3.3 40 18.4 55.5 28.3 19.8 12.8 42.8 30.3 57.3 43.7 19.4 17.9 57.4 45.7 68.3 49.8 3.8 1.5 4.7-.4 2.4-5-4.1-8-67.1-71.3-93-93.6-21.9-18.7-32.2-22.9-74.8-30.9-6.8-1.2-12.5-2.5-12.8-2.8-.9-.8 7.1-16 12.6-24.1 7.7-11.5 19.5-24.9 36.6-41.6 19.1-18.7 29.3-27.3 48.4-41.1 19.3-14 30-21.1 45-29.9 14.4-8.5 41.5-25.8 57.5-36.8 30.1-20.6 49.6-39.9 62.9-62.5 8.1-13.6 12.8-26.7 9.7-26.7-.5 0-3.8 3.5-7.4 7.7-23.3 27.9-57.5 54.1-124 95.1-15.2 9.5-32.3 20.3-38 24-5.6 3.8-12 7.8-14.3 9-2.3 1.2-9.1 6.2-15.3 11.1-6.1 5-11.4 9.1-11.8 9.1-.3 0-.3-1.5 0-3.3 3.4-19.2 4.9-29.8 6.3-44.1 1.5-14.1 1.6-18.7.6-28.5-1.1-11.7-2.9-20.1-5.7-26.8-2.1-5-3.2-3.2-4 6.7-1.9 21.8-5.2 39.2-12.9 69.5-6.7 25.8-12.6 51.2-12.6 53.7 0 1-1.8 4.9-4.1 8.6-4.2 6.9-19.2 28.2-19.6 27.8-.1-.1 1.8-5.6 4.3-12.2 8.3-21.7 23.3-66.7 27.8-83.4 6.9-25.2 7.6-30.7 7.6-59 0-27.2-1-35.1-5.9-49.5-2.9-8.2-10.7-24.5-11.7-24.5-.4 0-.3 2.6.1 5.7z"/><path d="M642.1 242c-6.5 12.1-22.9 29.8-52.6 56.5-15.3 13.7-41.8 34.3-53.6 41.6-14 8.7-49 35.7-55.3 42.8-1.1 1.1-2.5 2.1-3.2 2.1-1.8 0-5.6 5.7-5.2 7.8.2 1 1.2 1.6 2.5 1.5 2.8-.3 38.7-16.8 52.8-24.3 15.6-8.2 42.8-24.7 55.9-33.7 35.3-24.6 64.5-67.6 64.6-95.1 0-7.1-1.9-6.8-5.9.8zM627 309.9c-7.4 7.6-17.8 17.1-23 21.1-9.8 7.6-42 29-77.2 51.4-54 34.5-78.1 51.6-96.7 68.8-9.5 8.8-20.1 20.2-20.1 21.8 0 .4 1.9 1.1 4.3 1.5 9.3 1.6 22.4 7.3 35.2 15.5 17.3 11 48.5 37.2 71 59.6 55.6 55.4 82.3 77.9 108.6 91.7 4.6 2.4 9.7 5.1 11.3 6 2.2 1.2 3.3 1.3 4.3.5 2-1.6.5-3.5-16.9-20.9-8.4-8.5-25.8-26.7-38.7-40.4-23.4-25-49.4-50.5-62.6-61.4-18.7-15.3-40.2-29.4-61.8-40.5-15.7-8-25.2-11.3-37-13l-7.9-1.2 7.9-3.3c11.6-5.1 41.1-20.1 55-28 6.6-3.8 23.3-14.3 37-23.3C584.2 373.2 624 338.7 636 314.9c2.3-4.5 6-15.8 6-18.3 0-1.7-2.6.6-15 13.3zM272.8 414.9c-11.9 11.8-14.8 14.2-22.5 18.1-12.8 6.5-19.3 10.9-19.3 13 0 4.2 5.2 3.9 20.5-1 13.3-4.4 18.6-7.7 26-16.1 6.2-7.2 12.8-25.5 9.8-27.2-.5-.2-7 5.7-14.5 13.2z"/><path d="M284.9 424.5c-9.5 12.3-27.7 28.2-40.9 35.8-10.9 6.3-30.6 11.5-47.3 12.5-16 1-31-.6-76.7-8.5-14.6-2.5-18.9-2.8-37.5-2.8-22.8.1-31.2 1.2-40.5 5.3-6 2.6-16.3 9.6-19.5 13.2l-2 2.3 2.5-.6c20.5-5 44-5.6 100.5-2.7 68.6 3.6 93.6 2.7 114-4.1 13-4.3 21.6-9.7 32-20.3 7.7-7.7 9.9-10.8 14.8-20.4 3.3-6.4 5.7-12.2 5.5-13.5-.3-1.9-.9-1.4-4.9 3.8zM421.4 429.9c-10.9 7.3-27.5 26-35.8 40.3l-2.8 4.8h8.9c8.8 0 9 0 10.2-2.8 1.3-3 2.3-4.5 17.7-27.7 5.8-8.8 10.6-16.4 10.7-16.9.5-2.4-3.5-1.3-8.9 2.3z"/><path d="M97.7 431.2c-21.5 1.6-48.4 10.8-59.5 20.4-4.9 4.2-12.5 15.5-11.3 16.7.5.5 4.1-.9 8.2-3.1 8.4-4.5 24.8-9.5 37.1-11.3 4.7-.6 16.1-1 26.3-.8 36.3.5 74.2.4 81-.4 11.4-1.3 11.7-1.5 10.9-4-.3-1.2-.8-2.3-.9-2.5-.6-.7-26.5-7.4-39-10.2-20.6-4.5-37.5-6-52.8-4.8zM346 494.7c.1 2.3 6 6.6 20.1 14.6l4.6 2.6-1.8 8.3c-4.1 18.6-7.9 52.1-7.9 69.4 0 5.5.4 7.3 1.5 7.8 2.5.9 4.7-5.1 14.5-38.9 5.1-17.6 9.7-32.4 10.1-32.9 1.5-1.7 16.1 10.2 39.2 32.1 44.8 42.4 60.2 56 76.8 67.5 17.3 12.1 49.2 30.7 63.9 37.3 12 5.4 32.8 12.1 43.6 14.1 13.8 2.5 38.9 2.6 49.9.1 13.1-3 24.5-6.9 24.5-8.3 0-2.2-3.9-2.6-16.1-1.7-14.9 1.1-34.9 0-47.4-2.7-21.6-4.7-53-17.3-72-29-17.5-10.7-50.7-37.9-78.3-64.4-13.5-12.9-28-25.6-43.7-38-26.8-21.3-49-33-70.5-37-9.3-1.8-11-1.9-11-.9zM344.3 549.2c-3.3 4-4.6 12.6-5 33-.6 22.9.1 28.2 5.9 45.2 2.5 7.4 4.4 10.7 11 19.3 6.2 8 8.5 10.3 10.4 10.3 1.3 0 2.4-.1 2.4-.3 0-.2-1.8-5.7-4-12.2-7-20.5-11.5-41.1-13.4-60.5-2-20-4.1-33.9-5.4-35.2-.5-.5-1.3-.3-1.9.4z"/><path d="M595.5 646.7c-.4 1.3.4 2.7 2.8 4.9 2.6 2.4 7 4.3 17.8 7.8 20.1 6.4 36.7 8.1 54.6 5.5 12.9-1.9 13.8-4.9 1.5-4.9-4.2 0-10.8-.5-14.7-1-7.4-1.1-40.7-8.9-51.4-12.1-7.8-2.4-9.7-2.4-10.6-.2z"/></svg>