<svg version="1" xmlns="http://www.w3.org/2000/svg" width="933.333" height="933.333" viewBox="0 0 700.000000 700.000000"><path d="M98.6 11.7c-.3 1-.8 8.4-1.1 16.5-.3 8-.7 15.5-.9 16.5-.2 1-.7 5-1.1 8.8-.3 3.8-.8 7.2-1 7.5-.1.3-.6 2.7-.9 5.5-.5 3.8-5.6 27.4-9.1 42.5-3.1 13.2-7.6 29.7-11.7 43-2.8 9.1-5.1 16.9-5.3 17.5-.1.5-.5 1.7-.8 2.5-.3.8-4.9 15.9-10.2 33.5-5.3 17.6-12.7 41.7-16.5 53.5-7.6 23.8-8 25.3-12.6 54.5-.2 1.6-.6 4.1-.9 5.5-.2 1.4-.7 5.4-1.1 9-.3 3.6-.8 7.4-1 8.5-1.8 9.1-2.4 43.2-1.1 55.9C24.8 406.7 33 439 35.2 439c.4 0 2.6-1.3 5-2.8 6.9-4.6 15.6-7.9 25.8-10 8.3-1.8 12.7-2 34-1.7 13.5.2 26.1.6 28 .8 1.9.3 8 .8 13.5 1.2 5.5.3 12.3.8 15 1.1 14.6 1.2 19.5 1.5 36.5 1.9 19.4.4 27.8-.5 44.4-4.5 10-2.4 13.8-3.9 13-5.2-.7-1-4.3-2.5-7.7-3.2-1.2-.2-4.2-.9-6.7-1.5-2.5-.5-6.1-1.3-8-1.6-1.9-.3-6.9-1.2-11.1-2-4.2-.8-9.8-1.7-12.5-2-2.7-.4-6.5-1.1-8.4-1.7-4.5-1.4-90.3-2-98-.7-10.6 1.8-11.2 1.8-10.5 0 3.1-7.5 7.4-19.9 11.2-31.6 2.4-7.7 7.1-22.1 10.3-32 5.4-16.6 9.6-30.6 10.5-35.7.3-1.2.9-3.5 1.4-5.2.8-2.5 4.7-18.7 6.6-28 .3-1 1.6-5.8 2.9-10.5 3.1-10.9 11-42.3 13.1-52.1.9-4.1 1.8-8.4 2.1-9.5.4-1.8 6-33.8 6.9-39.5 4.5-28.7 3.5-56.7-2.7-71.3-1.8-4.2-3.6-6-3.9-4-.3 2.3-.7 6.7-1.3 14.3-.9 12.6-2.1 21.9-4.5 36.5-2.1 12.6-18 72.7-26.1 99-8.5 27.5-27.1 98-28.4 107.5-.3 1.9-1.2 7.1-2 11.5-.9 4.4-1.8 10-2 12.5-.3 2.5-.7 6.2-1 8.2-1.1 7.1-1.5 10.3-2.2 17.8-.4 4.1-.8 8.2-1 9-.1.8-.3 2.2-.3 3.1-.1.9-2 2.1-5.1 3.1-6.1 2-5.7 2.6-6.5-13.7-.5-12.4-2.3-21.6-4.2-22.2-.7-.3-2 .8-3 2.3-1.5 2.4-1.8 5.5-2.1 22.4-.3 16.4-.6 19.7-1.9 20.5-.9.5-2.8 2-4.3 3.2l-2.7 2.3-.8-5.8c-.4-3.1-.8-6.6-1-7.7-2-11-2.8-51-1.2-61 .7-4.5 1.6-10.9 3.3-23 .4-3.4 2.6-15.5 4-23 .2-1.1 2.4-10.6 4.9-21 2.5-10.5 4.8-19.9 5-21 1.9-7.9 8-29.5 11.9-42 12-37.5 20.7-67.4 23.1-79 1.4-7.2 2.5-12.3 2.9-14 2.2-9.8 4.8-23.9 6.1-33 .9-6.1 1.8-12.4 2.1-14 1-5.3 1.2-29.9.2-36.6-.5-3.5-1-7.8-1.3-9.4-.2-1.7-1.1-6.2-1.9-10-3-13.4-4.7-17.1-6-12.8z"/><path d="M116.5 48.2c0 12.8-.4 25.5-.8 28.3-.4 2.7-.9 7-1.2 9.5-.5 5.4-1.5 13.5-2.1 17.1-.2 1.5-.6 4.7-.9 7-1.3 10.5-3.8 26.2-5.6 35.9-6.1 31.5-10.5 51.6-13.1 60.5-6.4 21.8-7.9 27.5-10.3 39-1.3 6.6-2.6 13.3-2.9 15-.3 1.6-1.4 8.4-2.5 15-3.9 23.2-4.9 32.5-3.4 32.5 2 0 5.3-4.8 8.3-12 1.7-4.1 3.9-9.3 4.9-11.5 16.8-37.3 44.6-122.5 47.6-146 2.2-17.3 2.2-53.2-.1-68.5-1.3-8.5-5.9-24.6-9.8-33.8-2.2-5.1-6.3-11.2-7.7-11.2-.2 0-.4 10.5-.4 23.2zM380.9 192.7c-.2 12.9-1.4 31.6-2.4 37.3-.2 1.4-.7 4.7-1 7.5-.3 2.7-.8 5.7-1 6.5-.2.8-.6 3.1-.9 5-.7 4.6-7.6 35.1-11.6 51-1.8 6.9-3.3 13.2-3.5 14-.2.8-5.1 16.8-10.8 35.5-13.3 43-26 87.7-30.7 107.6-1.9 8-5.9 29.5-7.5 39.9-.4 2.5-.9 5.4-1.1 6.5-.2 1.1-.7 4.2-1 7-.3 2.7-.8 5.7-1.1 6.5-.2.8-.6 10-.8 20.5-.7 39.5 5.2 71 18.1 96.8 6.6 13.1 21 32.3 22.9 30.5.5-.4-1.1-4.6-3.3-9.3-7.3-15.1-13.1-33.9-14.7-48-.3-3.2-.8-6.2-1-6.5-.2-.3-.7-3.3-1-6.5-.4-3.3-.9-6.9-1.1-8-.6-2.9-1.7-27.8-1.7-36.1.1-13.7 1.5-32.1 3.3-42.4.5-3 1.2-7.5 1.5-10 1-8.1 3.6-21.3 6.1-31.5 1.4-5.5 2.7-11.1 3-12.5 1.8-9.3 10.5-40.8 17.3-62.1 15.5-49.6 19.5-64.2 24.5-89.9 4.4-22.8 6-32 7.2-42.5.3-2.8.7-6.1 1-7.5.6-3.9.6-22.9-.1-29-.3-3-1.8-11.4-3.2-18.5-1.4-7.2-2.6-13.7-2.7-14.4-.2-.8-.8-1.7-1.4-1.9-.8-.2-1.2 1.3-1.3 4.5z"/><path d="M403.9 204.7c-.1.5 0 1.2.1 1.8 1.5 7.6 1.8 25.3.6 39.5-.6 7.5-.8 9.1-2.1 17.2-.4 2.4-.8 5.4-1 6.8-.2 1.4-.9 5.6-1.5 9.5-.6 3.8-1.3 8.1-1.5 9.5-.2 1.4-.9 6.1-1.5 10.5-.7 4.4-1.8 10.7-2.5 14-.8 3.3-1.6 7.3-1.9 9-.6 3.2-3 14.5-9 41.2-1.9 8.9-4.5 18.8-5.6 22-2.4 6.7-8.2 28.1-9.4 34.5-.2 1.5-1.4 8-2.6 14.5-1.1 6.5-3 15.6-4 20.3-1.1 4.7-2.3 10.5-2.6 13-.4 2.5-1 5.5-1.5 6.8-.5 1.3-.9 4.3-.9 6.8 0 5.4 2.2 7.9 8.2 9.4 9.2 2.3 34.3 14 48.1 22.4 3.7 2.2 7.6 4.6 8.5 5.1 14.2 8.6 47.1 32.8 55.7 41 17 16.1 18.7 17.5 37.9 31.9 15 11.1 34.4 23.8 38.8 25.2 1.1.3 2.4.2 3-.4 1.7-1.7-2.7-8.3-12.9-19.2-13.2-14.1-63.4-64.1-71.4-71.2-22.2-19.6-27.4-23.4-38.9-28.7-6.2-2.8-20.1-7.3-26.5-8.4-1.7-.3-4.1-.9-5.5-1.2-1.4-.3-8.3-1.7-15.5-3-7.1-1.4-13.6-2.6-14.3-2.7-1.7-.4 6.9-17.4 13.4-26.6 12.9-18.2 39.9-46.3 62.9-65.3 16.3-13.6 56.7-41.9 67.5-47.4 9.4-4.8 57.8-36.2 72.7-47.2 25-18.4 43.8-39.3 54.9-61.4 6.7-13 7.4-14.9 7.4-18.1 0-4.1-1.9-2.8-9.2 6-7.8 9.6-23.7 25.3-31.4 31.2-3.3 2.5-6.6 5.1-7.4 5.9-.8.8-7.8 6.2-15.5 11.9-16.9 12.7-40.2 28.1-71.7 47.5-12.9 7.9-28.6 17.8-34.9 21.9-6.3 4.1-14.4 9.3-18.1 11.6-6.1 3.7-26.3 19.2-28.1 21.7-.4.5-.5-.1-.2-1.5 1.5-7.3 5.3-31.6 5.9-38 .3-3 .9-8.2 1.3-11.5 1.1-9.2.8-31.4-.6-37.5-2-9.1-5.4-20-6.2-20-1.8 0-2.5 2.5-3.4 14-.5 6.6-2.7 22.9-3.9 28.6-.2 1.2-.7 3.9-1 6-.6 3.7-5.3 22.7-11 44.8-1.5 5.5-2.9 11.3-3.2 12.9-.2 1.7-.7 3.3-.9 3.7-.2.3-.6 1.7-.9 3.1-5.9 28-5.7 27.7-16 41.9-2.5 3.6-6.5 9.1-8.7 12.2-3.8 5.5-6 7.7-4 4 2.3-4.1 15.8-42.2 27.2-76.7 4.5-13.8 10.8-38.7 12.5-49.4 1.8-12 1.7-49.5-.2-61.6-1.9-11.5-5.8-23.3-11.5-34.8-4.6-9.1-5.7-10.8-6-9z"/><path d="M650.2 236.1c-8.7 16.1-30.5 39.4-65.7 70.2-3.3 2.8-22.5 17.8-35 27.2-1.5 1.1-6.5 4.4-11.2 7.3-10.8 6.6-27 18.8-44.5 33.3-7.5 6.3-14.6 12.1-15.6 12.9-2 1.6-4.2 5.2-4.2 6.8 0 2.2 3.4 2.1 8.3-.2 2.9-1.3 11.3-5.2 18.7-8.6 28.2-12.9 56-28.3 81-44.8 28.9-19.1 49.1-41.6 63.9-71 5.1-10.1 7.1-16.9 7.7-26.8.6-9.2-.6-11.5-3.4-6.3zM641.2 300.1c-8.7 9.5-17.7 18.4-23.7 23.4-3.3 2.8-6.9 5.8-8 6.8-4.1 3.7-30.7 21.7-54.2 36.7-87.8 56-107.1 69.7-130 92.6-7.9 7.8-14.3 14.6-14.3 15.2 0 .7 1.2 1.4 2.8 1.7 9.1 1.9 24.3 7.7 31.1 12 7.8 4.9 11.4 7.3 16.6 10.8 10.7 7.2 42.7 34.6 56.6 48.6 27.2 27.3 63.4 61.6 72.9 69.1 3.6 2.9 7.4 5.9 8.5 6.8 9.5 7.9 29.1 20.7 38 24.9 2.7 1.2 6.5 3.2 8.4 4.3 2.6 1.4 3.8 1.7 4.8.8.7-.6 1.3-1.4 1.3-1.9s-7.1-8-15.7-16.7c-17.8-17.9-27.9-28.5-46.8-48.7C541.3 534.9 512 511 469 488.2c-16.8-8.9-29.4-13.2-42.4-14.7-4.5-.5-7.7-1.5-4.7-1.5 2.6 0 41.8-18.7 54.6-26 2.2-1.3 7.5-4.3 11.9-6.7 4.3-2.4 9-5.2 10.5-6.3 1.4-1 13.2-8.7 26.1-17.2 30.7-20.1 64.8-45.5 82.8-61.5 10.2-9.1 27-27.9 31.1-34.6 5.3-9 10.4-24.7 8-24.7-.6 0-3.2 2.3-5.7 5.1zM279 408.7c-12.2 13.4-22.1 21.5-33.4 27.3-13.7 7-18 10.4-16.6 13.1.9 1.7 1.8 1.9 6.5 1.4 3-.3 10.3-2.2 16.3-4.3 16.5-5.8 25.2-13.5 30.7-26.9 1.6-3.7 3.2-7.2 3.7-7.8 1.1-1.2 1-8.2-.1-8.9-.5-.4-3.7 2.4-7.1 6.1z"/><path d="M283 426.6c-13.7 17.5-34.6 34.1-50.5 40.2-7.2 2.8-19.3 6.1-24.9 6.9-2.3.3-6 .8-8.2 1.2-4.8.9-23.1.7-31.9-.3-5.8-.7-19.4-2.5-22.5-3.1-.8-.1-3.6-.5-6.1-.9-5.3-.8-7.4-1.1-18.4-3.1-20.2-3.7-30-4.5-46.5-4.1-9.1.3-17.8.7-19.5.9-12.2 1.6-18.2 3.7-27.1 9.3-5.5 3.5-14.8 11.7-12.4 11 .8-.3 2.9-.7 4.5-1 1.7-.2 5.9-.9 9.5-1.5 18-3 56.4-3.3 76.5-.6 3.1.4 12.9 1 33 2.1 26.3 1.4 62.1.5 79.5-2.1 30.6-4.5 54.3-21.9 67.2-49.4 2.6-5.5 4.4-12.1 3.3-12.1-.2 0-2.7 3-5.5 6.6zM425.9 429.3c-6.1 3-23.1 19.7-30.8 30.2-6.1 8.3-11.7 17.3-10.9 17.6.2.1 4.2.2 9 .3l8.7.1 1.8-3.9c1-2.2 3-5.6 4.5-7.7 1.6-2.2 2.8-4.1 2.8-4.4 0-.3 4.8-7.6 10.6-16.3 5.8-8.6 10.8-16 11-16.3 1.1-1.8-2.9-1.5-6.7.4z"/><path d="M87.5 432.7c-24.9 2.8-49.4 13.2-60 25.5-3.2 3.8-7.5 10.7-7.5 12.3 0 1.3 3.4.3 7.2-2.1 16.5-10.4 50.9-15.9 81.8-13 17.8 1.7 55.8 1 69.2-1.3 2.5-.4 5.5-.6 6.7-.4 1.5.2 2.1-.2 2.1-1.6 0-2.9-2.9-4.7-11.5-6.9-4.4-1.2-10.7-2.8-14-3.7-3.3-.9-7.8-2-10-2.4-12.8-2.8-24.6-5-29-5.6-5.5-.8-30.2-1.3-35-.8zM346 497.6c.1 2.5 5.3 6.4 17 12.8 8.7 4.7 8.4 3.9 6.1 14.1-1.1 5-2.2 11-2.6 13.5-.3 2.5-1 7.1-1.6 10.3-.6 3.3-1.2 7.5-1.3 9.5-.2 2.1-.7 8-1.2 13.2-.4 5.2-.8 14.2-.8 20-.1 8.6.2 10.5 1.4 10.8 2.6.5 5.4-6.1 10.5-24.8 1.1-4.1 13.6-46.7 14-47.8.3-.9 2.2 0 6.2 2.7 7.7 5.2 14.5 11.2 34.5 30.3 9.2 8.8 17.9 17.1 19.5 18.5 1.5 1.4 5.8 5.3 9.4 8.7 29.3 27.4 45 39.8 65.6 52.2 40.6 24.3 48.4 28.2 72 35.8 11.3 3.7 18.4 5.5 24.3 6.2 1.9.2 6 .8 9 1.3 5.1.9 25.4.6 31-.3 3.1-.5 7.5-1.4 11.5-2.2 7-1.4 19.4-5.6 20.5-6.9 2-2.4-2.1-3.6-9.7-2.8-14.3 1.5-38.1.7-50.3-1.6-22.3-4.4-53.7-16.4-74.1-28.4-13-7.6-43.4-30.7-54.9-41.7-.9-.8-5.6-5.1-10.5-9.5s-13.4-12.3-18.9-17.6c-19.2-18.3-48.2-42.2-64.6-53.3-14.4-9.8-37.5-20.1-49.1-22-9.1-1.5-12.9-1.8-12.9-1zM342.7 555.8c-2.8 7.1-3.7 15.5-3.7 35.6 0 19 .2 20.7 2.9 31.1 1.6 6 4 13.5 5.4 16.5 3 6.7 15.7 23.1 18.7 24.2 2.9 1.1 4.3.1 3.1-2-.8-1.6-8.2-23.4-8.7-25.7-.1-.6-1.6-6.8-3.4-13.9-1.7-7.2-3.4-15-3.6-17.5-.3-2.5-.9-7.3-1.4-10.6-.5-3.3-1.2-9.8-1.5-14.5-.3-4.7-1.1-11.5-1.6-15.2-.6-3.7-1.1-7.1-1.1-7.5 0-1.4-1.9-4.3-2.7-4.3-.5 0-1.6 1.7-2.4 3.8z"/><path d="M600.6 652.6c-.8 2.1 2.2 6 5.9 7.8 7 3.4 29 9.7 37.2 10.7 7.9 1 31.4.7 38.5-.5 6.7-1.1 6.2-4-.8-4.3-16-.5-21-1.2-38.4-5.4-6.9-1.7-13.4-3.2-14.5-3.5-1.1-.2-5.4-1.3-9.5-2.4-16.8-4.7-17.5-4.8-18.4-2.4z"/></svg>